# xmcd
# 
# Track frame offsets:
#     150
#     16084
#     31684
#     47719
#     64788
#     80597
#     99707
#     115453
#     132091
#     147635
#     163562
#     178305
#     195639
#     211012
#     226960
#     241271
#     255035
#     267803
#     284434
#     304969
# 
# Disc length: 4295
# 
# Revision: 1
# Processed by: cddbd v1.5.2PL0 Copyright (c) Steve Scherf et al.
# Submitted via: BonkEnc v1.0
# 
DISCID=1410c514
DTITLE=Wolfgang Petry - Alles
DYEAR=1996
DGENRE=Pop
TTITLE0=Wolfgang Petry - Verlieben,Verloren,Vergessen,Verzeih'n
TTITLE1=Wolfgang Petry - Der Himmel brennt
TTITLE2=Wolfgang Petry - Du bist ein Wunder
TTITLE3=Wolfgang Petry - Wahnsinn
TTITLE4=Wolfgang Petry - Wieso und weshalb ...
TTITLE5=Wolfgang Petry - Sommer in der Stadt
TTITLE6=Wolfgang Petry - Sieben Tage, sieben Nächte
TTITLE7=Wolfgang Petry - Ganz oder gar nicht
TTITLE8=Wolfgang Petry - Frei für Dich
TTITLE9=Wolfgang Petry - Jessica
TTITLE10=Wolfgang Petry - Bronze, Silber und Gold
TTITLE11=Wolfgang Petry - Tu's doch
TTITLE12=Wolfgang Petry - Gianna
TTITLE13=Wolfgang Petry - Sehnsucht nach Dir
TTITLE14=Wolfgang Petry - Scheissegal
TTITLE15=Wolfgang Petry - Ruhrgebiet
TTITLE16=Wolfgang Petry - Denn eines Tags vielleicht
TTITLE17=Wolfgang Petry - Nur ein kleines Stück Papier
TTITLE18=Wolfgang Petry - Mein Zuhaus
TTITLE19=Wolfgang Petry - Der Wofgang Petry - Hitmix
EXTD=YEAR: 1996 ID3G: 13
EXTT0=
EXTT1=
EXTT2=
EXTT3=
EXTT4=
EXTT5=
EXTT6=
EXTT7=
EXTT8=
EXTT9=
EXTT10=
EXTT11=
EXTT12=
EXTT13=
EXTT14=
EXTT15=
EXTT16=
EXTT17=
EXTT18=
EXTT19=
PLAYORDER=
